<!-- Generated by IcoMoon.io -->
<svg version="1.1" xmlns="http://www.w3.org/2000/svg" width="64" height="64" viewBox="0 0 64 64">
<title>picture_as_pdf</title>
<path d="M37.375 30.625v-8h2.625v8h-2.625zM10.625 16v37.375h37.375v5.25h-37.375q-2.125 0-3.688-1.563t-1.563-3.688v-37.375h5.25zM24 25.375v-2.75h2.625v2.75h-2.625zM54.625 22.625v-4h-8v16h4v-5.25h4v-4h-4v-2.75h4zM44 30.625v-8q0-1.625-1.125-2.813t-2.875-1.188h-6.625v16h6.625q1.75 0 2.875-1.188t1.125-2.813zM30.625 25.375v-2.75q0-1.625-1.188-2.813t-2.813-1.188h-6.625v16h4v-5.25h2.625q1.625 0 2.813-1.188t1.188-2.813zM53.375 5.375q2.125 0 3.688 1.563t1.563 3.688v32q0 2.125-1.563 3.75t-3.688 1.625h-32q-2.125 0-3.75-1.625t-1.625-3.75v-32q0-2.125 1.625-3.688t3.75-1.563h32z"></path>
</svg>
