<svg id="initials" class="logo-initials" viewBox="0 0 74 38" preserveAspectRatio="xMinYMin meet">
  <g>
    <path d="M39.438 37.5c-.39 0-.728-.143-1.012-.429A1.394 1.394 0 0 1 38 36.054V1.446c0-.392.142-.732.426-1.017A1.379 1.379 0 0 1 39.438 0h10.176c.39 0 .728.143 1.012.429.284.285.426.625.426 1.017v10.608l6.02-10.875C57.498.393 58.208 0 59.202 0h11.774c.32 0 .595.116.826.348.23.232.346.51.346.83 0 .215-.053.411-.16.59L62.4 17.946l10.495 17.786c.107.143.16.34.16.59 0 .32-.115.598-.346.83-.231.232-.506.348-.826.348H59.736c-.604 0-1.084-.134-1.439-.402s-.604-.544-.746-.83l-6.499-11.679v11.465c0 .392-.142.732-.426 1.017a1.379 1.379 0 0 1-1.012.429H39.438z"/>
    <path d="M1.172 37.475c-.32 0-.595-.115-.826-.346A1.127 1.127 0 0 1 0 36.303c0-.142.018-.266.053-.373l11.88-33.988c.142-.462.409-.87.8-1.225.39-.356.923-.533 1.598-.533h11.56c.675 0 1.207.177 1.598.533.39.355.657.763.8 1.225l11.88 33.988c.035.107.053.231.053.373 0 .32-.116.595-.347.826-.23.23-.506.346-.825.346h-9.856c-1.066 0-1.758-.444-2.078-1.332l-1.278-3.516H14.384l-1.279 3.516c-.32.888-1.012 1.332-2.077 1.332H1.172zM17.101 22.24h6.02l-3.037-9.909-2.983 9.91z"/>
  </g>
</svg>
