<svg viewBox="0 0 75 38" preserveAspectRatio="xMinYMin meet"><g><path d="M40.438 37.291c-.39 0-.728-.142-1.012-.426A1.383 1.383 0 0 1 39 35.853V1.438c0-.39.142-.728.426-1.012A1.383 1.383 0 0 1 40.438 0h10.176c.39 0 .728.142 1.012.426.284.284.426.622.426 1.012v10.549l6.02-10.815C58.498.391 59.208 0 60.202 0h11.774c.32 0 .595.115.826.346.23.231.346.506.346.826 0 .213-.053.408-.16.586L63.4 17.847l10.495 17.686c.107.143.16.338.16.586 0 .32-.115.595-.346.826-.231.231-.506.346-.826.346H60.736c-.604 0-1.084-.133-1.439-.4-.355-.265-.604-.54-.746-.825l-6.499-11.613v11.4c0 .39-.142.728-.426 1.012a1.383 1.383 0 0 1-1.012.426H40.438z"/><path d="M1.172 37.475c-.32 0-.595-.115-.826-.346A1.127 1.127 0 0 1 0 36.303c0-.142.018-.266.053-.373l11.88-33.988c.142-.462.409-.87.8-1.225.39-.356.923-.533 1.598-.533h11.56c.675 0 1.207.177 1.598.533.39.355.657.763.8 1.225l11.88 33.988c.035.107.053.231.053.373 0 .32-.116.595-.347.826-.23.23-.506.346-.825.346h-9.856c-1.066 0-1.758-.444-2.078-1.332l-1.278-3.516H14.384l-1.279 3.516c-.32.888-1.012 1.332-2.077 1.332H1.172zM17.101 22.24h6.02l-3.037-9.909-2.983 9.91z"/></g></svg>
