<svg version="1.1" preserveAspectRatio="xMinYMin meet" viewBox="0 0 330 49" class="logo">
  <path class="letter p2" d="M299.8 48.597c-.39 0-.728-.142-1.012-.426a1.383 1.383 0 0 1-.427-1.012V12.21c0-.39.142-.728.427-1.012a1.383 1.383 0 0 1 1.012-.426h9.056c.391 0 .728.142 1.013.426.284.284.426.622.426 1.012v1.599c.852-1.101 1.944-1.971 3.276-2.61 1.332-.64 2.868-.96 4.608-.96 3.303 0 5.967.995 7.991 2.984 2.025 1.989 3.126 5.096 3.303 9.323.036.532.053 1.225.053 2.077 0 .888-.017 1.598-.053 2.131-.142 4.013-1.252 7.059-3.33 9.137-2.077 2.077-4.732 3.116-7.964 3.116s-5.594-1.065-7.085-3.196v11.347c0 .39-.142.728-.426 1.012a1.383 1.383 0 0 1-1.013.426H299.8zm13.957-19.125c.924 0 1.572-.248 1.945-.746.373-.497.613-1.278.72-2.344.07-.71.106-1.296.106-1.758 0-.461-.036-1.047-.107-1.758-.106-1.065-.346-1.847-.719-2.344-.373-.497-1.021-.746-1.945-.746-.923 0-1.58.258-1.97.773-.391.515-.622 1.287-.693 2.317-.036.533-.053 1.19-.053 1.971 0 .782.017 1.439.053 1.971.07.888.31 1.554.719 1.998.408.444 1.057.666 1.944.666z"/>
  <path class="letter p" d="M265.024 48.597c-.39 0-.728-.142-1.012-.426a1.383 1.383 0 0 1-.426-1.012V12.21c0-.39.142-.728.426-1.012a1.383 1.383 0 0 1 1.012-.426h9.057c.39 0 .728.142 1.012.426.284.284.426.622.426 1.012v1.599c.852-1.101 1.944-1.971 3.276-2.61 1.332-.64 2.868-.96 4.608-.96 3.303 0 5.967.995 7.991 2.984 2.025 1.989 3.126 5.096 3.303 9.323.036.532.054 1.225.054 2.077 0 .888-.018 1.598-.054 2.131-.142 4.013-1.252 7.059-3.33 9.137-2.077 2.077-4.732 3.116-7.964 3.116s-5.593-1.065-7.085-3.196v11.347c0 .39-.142.728-.426 1.012a1.383 1.383 0 0 1-1.012.426h-9.856zm13.958-19.125c.923 0 1.571-.248 1.944-.746.373-.497.613-1.278.72-2.344.07-.71.106-1.296.106-1.758 0-.461-.036-1.047-.107-1.758-.106-1.065-.346-1.847-.719-2.344-.373-.497-1.02-.746-1.944-.746-.924 0-1.58.258-1.971.773s-.622 1.287-.693 2.317c-.035.533-.053 1.19-.053 1.971 0 .782.018 1.439.053 1.971.071.888.31 1.554.72 1.998.408.444 1.056.666 1.944.666z"/>
  <path class="letter a2" d="M239.133 39.008c-1.989 0-3.773-.373-5.354-1.119-1.58-.746-2.806-1.758-3.676-3.036-.87-1.279-1.305-2.717-1.305-4.315 0-4.795 3.889-7.867 11.667-9.217l5.647-.905v-.054c0-1.03-.089-1.731-.266-2.104-.178-.373-.622-.56-1.332-.56-.391 0-.728.072-1.012.214a4.28 4.28 0 0 0-.906.639c-.32.284-.595.497-.826.64-.23.141-.541.212-.932.212h-9.057c-.32 0-.595-.097-.825-.293a.962.962 0 0 1-.347-.772c0-1.03.506-2.184 1.519-3.463 1.012-1.278 2.575-2.37 4.688-3.276 2.113-.906 4.714-1.359 7.804-1.359 4.76 0 8.329.995 10.708 2.984 2.38 1.989 3.57 4.83 3.57 8.523v15.29c0 .39-.142.728-.427 1.012a1.383 1.383 0 0 1-1.012.426h-9.323c-.39 0-.728-.142-1.012-.426a1.383 1.383 0 0 1-.426-1.012v-1.492c-.781 1.066-1.83 1.91-3.143 2.53-1.314.622-2.788.933-4.422.933zm3.676-7.884c1.065 0 1.909-.338 2.53-1.013.622-.674.933-1.704.933-3.09v-.053l-3.143.693c-1.563.355-2.344 1.012-2.344 1.97 0 .427.177.782.532 1.066.355.285.853.427 1.492.427z"/>
  <path class="letter n2" d="M195.295 38.594c-.39 0-.728-.142-1.012-.426a1.383 1.383 0 0 1-.426-1.013V12.33c0-.39.142-.728.426-1.012a1.383 1.383 0 0 1 1.012-.427h9.323c.39 0 .728.143 1.012.427.284.284.426.621.426 1.012v1.758c.924-1.101 2.175-1.998 3.756-2.69 1.58-.693 3.276-1.04 5.088-1.04 1.882 0 3.604.436 5.167 1.306 1.563.87 2.815 2.21 3.756 4.022.941 1.811 1.412 4.067 1.412 6.766v14.703c0 .391-.142.728-.427 1.013a1.383 1.383 0 0 1-1.012.426h-10.175c-.39 0-.728-.142-1.012-.426a1.383 1.383 0 0 1-.426-1.013v-14.33c0-.96-.231-1.687-.693-2.184-.462-.498-1.119-.746-1.971-.746-.852 0-1.51.248-1.971.746-.462.497-.693 1.225-.693 2.184v14.33c0 .391-.142.728-.426 1.013a1.383 1.383 0 0 1-1.012.426h-10.122z"/>
  <path class="letter upper k" d="M157.56 38.771c-.391 0-.729-.142-1.013-.426a1.383 1.383 0 0 1-.426-1.012V2.918c0-.39.142-.728.426-1.012a1.383 1.383 0 0 1 1.012-.426h10.176c.39 0 .728.142 1.012.426.284.284.426.622.426 1.012v10.548l6.02-10.814c.426-.782 1.137-1.172 2.13-1.172h11.774c.32 0 .595.115.826.346.231.231.346.506.346.826 0 .213-.053.408-.16.586l-9.589 16.088 10.495 17.687c.107.142.16.338.16.586 0 .32-.115.595-.346.826-.231.23-.506.346-.826.346h-12.146c-.604 0-1.084-.133-1.439-.4-.355-.266-.603-.54-.746-.825l-6.499-11.614v11.4c0 .392-.142.729-.426 1.013a1.383 1.383 0 0 1-1.012.426h-10.176z"/>
  <path class="letter y" d="M118.918 48.183c-.32 0-.595-.107-.825-.32a1.042 1.042 0 0 1-.347-.799c0-.035-.009-.106-.026-.213a.435.435 0 0 1 .08-.32l4.262-10.228L111.78 12.01a1.18 1.18 0 0 1-.054-.373c.071-.355.231-.657.48-.905.249-.249.533-.373.852-.373h9.004c.816 0 1.385.426 1.704 1.278l4.369 12.147 4.528-12.147c.355-.852.959-1.278 1.811-1.278h8.897c.32 0 .604.115.852.346.249.23.373.488.373.772 0 .214-.018.391-.053.533L129.52 46.904c-.355.853-.977 1.279-1.865 1.279h-8.737z"/>
  <path class="letter d" d="M89.21 39.008c-3.303 0-5.967-.994-7.992-2.983-2.024-1.99-3.125-5.097-3.302-9.323l-.054-2.131.054-2.078c.142-4.013 1.251-7.058 3.33-9.136 2.077-2.078 4.732-3.117 7.964-3.117 2.876 0 5.238.835 7.085 2.504V2.09c0-.391.142-.729.426-1.013a1.383 1.383 0 0 1 1.012-.426h9.856c.39 0 .728.142 1.012.426.284.284.426.622.426 1.013v34.947c0 .39-.142.728-.426 1.012a1.383 1.383 0 0 1-1.012.426h-9.057c-.39 0-.728-.142-1.012-.426a1.383 1.383 0 0 1-.426-1.012v-1.225c-1.882 2.13-4.51 3.196-7.884 3.196zm4.421-9.536c.924 0 1.58-.257 1.971-.772s.622-1.288.693-2.318c.07-1.065.106-1.722.106-1.97 0-.25-.035-.907-.106-1.972-.071-.888-.31-1.554-.72-1.998-.408-.444-1.056-.666-1.944-.666-.923 0-1.571.249-1.944.746s-.613 1.279-.72 2.344c-.035.355-.053.941-.053 1.758 0 .817.018 1.403.054 1.758.106 1.066.346 1.847.719 2.344.373.498 1.02.746 1.944.746z"/>
  <path class="letter n" d="M43.79 38.475c-.39 0-.727-.142-1.011-.426a1.383 1.383 0 0 1-.427-1.012V12.211c0-.39.143-.728.427-1.012a1.383 1.383 0 0 1 1.012-.426h9.323c.39 0 .728.142 1.012.426.284.284.426.622.426 1.012v1.759c.924-1.101 2.175-1.998 3.756-2.69 1.58-.693 3.276-1.04 5.088-1.04 1.882 0 3.604.435 5.167 1.306 1.563.87 2.815 2.21 3.756 4.022.941 1.811 1.412 4.066 1.412 6.765v14.704c0 .39-.142.728-.427 1.012a1.383 1.383 0 0 1-1.012.426H62.117c-.39 0-.728-.142-1.012-.426a1.383 1.383 0 0 1-.426-1.012v-14.33c0-.96-.231-1.688-.693-2.185-.462-.497-1.119-.746-1.971-.746-.852 0-1.51.249-1.971.746-.462.497-.693 1.225-.693 2.184v14.331c0 .39-.142.728-.426 1.012a1.383 1.383 0 0 1-1.012.426H43.79z"/>
  <path class="letter upper a" d="M1.172 38.475c-.32 0-.595-.115-.826-.346A1.127 1.127 0 0 1 0 37.303c0-.142.018-.266.053-.373l11.88-33.988c.142-.462.409-.87.8-1.225.39-.356.923-.533 1.598-.533h11.56c.675 0 1.207.177 1.598.533.39.355.657.763.8 1.225l11.88 33.988c.035.107.053.231.053.373 0 .32-.116.595-.347.826-.23.23-.506.346-.825.346h-9.856c-1.066 0-1.758-.444-2.078-1.332l-1.278-3.516H14.384l-1.279 3.516c-.32.888-1.012 1.332-2.077 1.332H1.172zM17.101 23.24h6.02l-3.037-9.909-2.983 9.91z"/>
</svg>
