<svg style="display:none;"><symbol viewBox="0 0 32 32" id="icon-codepen"><title>codepen</title><path d="M31.976 10.886c-.008-.04-.014-.08-.024-.116l-.02-.066c-.012-.034-.024-.068-.04-.1-.006-.024-.02-.046-.028-.068l-.046-.09-.04-.064-.06-.08-.06-.06-.08-.06-.06-.04-.08-.06-.06-.04-.02-.02L16.76.24c-.46-.308-1.06-.308-1.52 0L.444 10.11l-.05.054-.068.074-.048.06-.06.08c-.02.02-.04.04-.04.06l-.06.08-.02.08c-.02.02-.02.06-.04.1l-.02.06c-.02.04-.02.08-.02.12v.06C0 11 0 11.06 0 11.12v9.75c0 .06.004.12.012.18l.014.06c.006.04.012.08.026.116l.02.066c.012.036.02.07.036.1l.03.066c0 .02.02.06.04.08l.04.06c.02.02.04.06.06.08l.04.06.06.06c.02.02.02.04.04.04l.08.06.06.04.02.02 14.62 9.76c.22.16.5.22.76.22s.52-.08.76-.24l14.862-9.874.07-.074.048-.06.06-.08.04-.064.04-.092.02-.072.04-.1.02-.06.04-.1v-10c0-.06 0-.12-.02-.18l-.02-.06.058.004zM16 19.252L11.136 16 16 12.748 20.864 16 16 19.252zm-1.376-8.892l-5.96 3.986-4.812-3.22 10.772-7.18v6.414zM6.19 16l-3.44 2.3v-4.6L6.19 16zm2.474 1.656l5.96 3.986v6.42l-10.772-7.18 4.812-3.22v-.006zm8.71 3.986l5.96-3.98 4.814 3.22-10.774 7.18v-6.42zM25.81 16l3.44-2.3v4.6L25.81 16zm-2.474-1.654l-5.96-3.986V3.94l10.772 7.18-4.812 3.22v.006z" fill-rule="nonzero"/></symbol><symbol viewBox="0 0 20 18" id="icon-email"><title>email</title><path d="M10 8.016L18.016 3H1.986L10 8.016zM18.016 15V5.016L10 9.986l-8.016-4.97V15h16.032zm0-14.016c1.078 0 1.97.938 1.97 2.016v12c0 1.078-.892 2.016-1.97 2.016H1.986c-1.08 0-1.97-.938-1.97-2.016V3c0-1.078.89-2.016 1.97-2.016h16.03z" fill-rule="nonzero"/></symbol><symbol viewBox="0 0 28 28" id="icon-external-link"><title>external-link</title>  <path d="M22 14.5v5c0 2.484-2.016 4.5-4.5 4.5h-13c-2.484 0-4.5-2.016-4.5-4.5v-13c0-2.484 2.016-4.5 4.5-4.5h11c0.281 0 0.5 0.219 0.5 0.5v1c0 0.281-0.219 0.5-0.5 0.5h-11c-1.375 0-2.5 1.125-2.5 2.5v13c0 1.375 1.125 2.5 2.5 2.5h13c1.375 0 2.5-1.125 2.5-2.5v-5c0-0.281 0.219-0.5 0.5-0.5h1c0.281 0 0.5 0.219 0.5 0.5zM28 1v8c0 0.547-0.453 1-1 1-0.266 0-0.516-0.109-0.703-0.297l-2.75-2.75-10.187 10.187c-0.094 0.094-0.234 0.156-0.359 0.156s-0.266-0.063-0.359-0.156l-1.781-1.781c-0.094-0.094-0.156-0.234-0.156-0.359s0.063-0.266 0.156-0.359l10.187-10.187-2.75-2.75c-0.187-0.187-0.297-0.438-0.297-0.703 0-0.547 0.453-1 1-1h8c0.547 0 1 0.453 1 1z"/> </symbol><symbol viewBox="0 0 20 18" id="icon-home"><title>home</title><path d="M7.984 17.016h-4.97V9h-3L10 0l9.983 9h-3v8.016h-4.97v-6h-4.03v6" fill-rule="nonzero"/></symbol><symbol viewBox="0 0 32 32" id="icon-linkedin"><title>linkedin</title><path d="M27.264 27.27h-4.74v-7.426c0-1.772-.036-4.05-2.468-4.05-2.47 0-2.848 1.928-2.848 3.92v7.556h-4.74V12h4.552v2.08h.06c.636-1.2 2.184-2.466 4.494-2.466 4.8 0 5.69 3.16 5.69 7.274v8.382zM7.116 9.91c-1.524 0-2.752-1.234-2.752-2.754 0-1.516 1.228-2.75 2.752-2.75 1.52 0 2.752 1.234 2.752 2.75 0 1.52-1.234 2.754-2.752 2.754zm2.376 17.36H4.74V12h4.752v15.27zM29.632 0H2.36C1.056 0 0 1.032 0 2.306v27.388C0 30.968 1.056 32 2.36 32h27.27c1.304 0 2.37-1.032 2.37-2.306V2.306C32 1.032 30.934 0 29.63 0h.002z" fill-rule="nonzero"/></symbol><symbol viewBox="0 0 18 18" id="icon-phone"><title>phone</title><path d="M12 9c0-1.64-1.36-3-3-3V3.984c2.766 0 5.016 2.25 5.016 5.016H12zm3.984 0c0-3.89-3.094-6.984-6.984-6.984V0c4.97 0 9 4.03 9 9h-2.016zm1.032 3.516c.563 0 .984.422.984.984v3.516c0 .563-.422.984-.984.984C7.64 18 0 10.36 0 .984 0 .42.422 0 .984 0H4.5c.563 0 .984.422.984.984 0 1.266.188 2.438.563 3.563.094.328.047.75-.234 1.03L3.61 7.782c1.453 2.86 3.797 5.157 6.61 6.61l2.202-2.203c.28-.28.703-.328 1.03-.234 1.126.375 2.298.563 3.564.563z" fill-rule="nonzero"/></symbol><symbol viewBox="0 0 20 19" id="icon-photos"><title>photos</title><path d="M10 15.016c2.766 0 5.016-2.25 5.016-5.016S12.766 4.984 10 4.984 4.984 7.234 4.984 10s2.25 5.016 5.016 5.016zm-3-15h6l1.828 1.97h3.188c1.078 0 1.97.937 1.97 2.015v12c0 1.08-.892 2.017-1.97 2.017H1.986c-1.08 0-1.97-.938-1.97-2.016V4c0-1.077.89-2.015 1.97-2.015h3.187L7 .015zM6.813 10c0-1.78 1.406-3.188 3.188-3.188 1.783 0 3.19 1.406 3.19 3.188 0 1.782-1.407 3.188-3.19 3.188-1.78 0-3.187-1.406-3.187-3.188z" fill-rule="nonzero"/></symbol><symbol viewBox="0 0 20 18" id="icon-print"><title>print</title><path d="M16 0v3.984H4V0h12zm.984 9c.563 0 1.03-.422 1.03-.984s-.468-1.03-1.03-1.03S16 7.453 16 8.015s.422.984.984.984zm-3 6.984v-4.97h-7.97v4.97h7.97zm3-10.968c1.64 0 3 1.36 3 3v6H16V18H4v-3.984H.016v-6c0-1.64 1.36-3 3-3h13.97-.002z" fill-rule="nonzero"/></symbol><symbol viewBox="0 0 32 27" id="icon-twitter"><title>twitter</title><path d="M32 4.076c-1.18.52-2.44.874-3.77 1.034 1.354-.814 2.396-2.1 2.886-3.632-1.268.74-2.674 1.28-4.17 1.58-1.196-1.28-2.9-2.08-4.792-2.08-3.624 0-6.564 2.94-6.564 6.56 0 .52.06 1.02.17 1.5-5.456-.26-10.294-2.88-13.532-6.84C1.66 3.16 1.34 4.28 1.34 5.5c0 2.28 1.16 4.286 2.92 5.464-1.076-.034-2.09-.33-2.974-.82v.08c0 3.18 2.26 5.836 5.266 6.44-.552.148-1.132.228-1.73.228-.42 0-.82-.04-1.22-.116.84 2.608 3.26 4.506 6.14 4.56-2.24 1.76-5.08 2.808-8.14 2.808-.52 0-1.04-.03-1.56-.09 2.92 1.86 6.36 2.948 10.08 2.948 12.08 0 18.68-10 18.68-18.66 0-.28 0-.56-.02-.84 1.28-.92 2.4-2.08 3.28-3.4L32 4.076z" fill-rule="nonzero"/></symbol><symbol viewBox="0 0 24 18" id="icon-website"><title>website</title><path d="M20.016 12V2.016H3.986V12h16.03zm-6 3v-.984h-4.03V15h4.03zm7.968 0H24v2.016H0V15h2.016V0h19.97v15h-.002z" fill-rule="nonzero"/></symbol></svg>