<svg id="logo" viewBox="0 0 330 49" preserveAspectRatio="xMinYMin meet" class="logo">
    <g id="Group" transform="translate(-0.000157, 1.184000)">
        <path id="rect1" fill="transparent" stroke-dashoffset="1000" stroke-dasharray="1000" stroke="url(#Gradient1)" class="k clone" d="M157.560157,37.5870662 C157.169157,37.5870662 156.831157,37.445 156.547157,37.161 C156.271593,36.8969034 156.117426,36.530665 156.12109,36.149 L156.12109,1.734 C156.12109,1.344 156.263157,1.006 156.547157,0.722 C156.811253,0.44643683 157.177492,0.292269294 157.559157,0.29593383 L167.735157,0.29593383 C168.125157,0.29593383 168.463157,0.438 168.747157,0.722 C169.031157,1.006 169.173157,1.344 169.173157,1.734 L169.173157,12.282 L175.193157,1.468 C175.619157,0.686 176.330157,0.29593383 177.323157,0.29593383 L189.097157,0.29593383 C189.417157,0.29593383 189.692157,0.411 189.923157,0.642 C190.154157,0.873 190.269157,1.148 190.269157,1.468 C190.269157,1.681 190.216157,1.876 190.109157,2.054 L180.520157,18.142 L191.015157,35.829 C191.122157,35.971 191.175157,36.167 191.175157,36.415 C191.175157,36.735 191.060157,37.01 190.829157,37.241 C190.598157,37.471 190.323157,37.5870662 190.003157,37.5870662 L177.857157,37.5870662 C177.253157,37.5870662 176.773157,37.454 176.418157,37.187 C176.063157,36.921 175.815157,36.647 175.672157,36.362 L169.173157,24.748 L169.173157,36.148 C169.173157,36.54 169.031157,36.877 168.747157,37.161 C168.48306,37.4365632 168.116822,37.5907307 167.735157,37.5870662 L157.559157,37.5870662 L157.560157,37.5870662 Z" id="rect1"></path>
        <path id="rect2" fill="transparent" stroke-dashoffset="1000" stroke-dasharray="1000" stroke="url(#Gradient2)" class="clone a" d="M1.17215659,37.291 C0.852156592,37.291 0.577156592,37.176 0.346156592,36.945 C0.12168515,36.7292755 -0.00354950239,36.4303049 7.6611243e-05,36.119 C7.6611243e-05,35.977 0.0181565918,35.853 0.0531565918,35.746 L11.9331566,1.758 C12.0751566,1.296 12.3421566,0.888 12.7331566,0.533 C13.1231566,0.177 13.6561566,0 14.3311566,0 L25.8911566,0 C26.5661566,0 27.0981566,0.177 27.4891566,0.533 C27.8791566,0.888 28.1461566,1.296 28.2891566,1.758 L40.1691566,35.746 C40.2041566,35.853 40.2221566,35.977 40.2221566,36.119 C40.2221566,36.439 40.1061566,36.714 39.8751566,36.945 C39.6451566,37.175 39.3691566,37.291 39.0501566,37.291 L29.1941566,37.291 C28.1281566,37.291 27.4361566,36.847 27.1161566,35.959 L25.8381566,32.443 L14.3841566,32.443 L13.1051566,35.959 C12.7851566,36.847 12.0931566,37.291 11.0281566,37.291 L1.17215659,37.291 L1.17215659,37.291 Z M17.1011566,22.056 L23.1211566,22.056 L20.0841566,12.147 L17.1011566,22.057 L17.1011566,22.056 Z" id="rect1"></path>
    </g>

    <linearGradient id="Gradient1">
        <stop offset="0%" stop-color="#694872"/>
        <stop offset="100%" stop-color="#B72B28" />
    </linearGradient>

    <linearGradient id="Gradient2">
        <stop offset="30%" stop-color="#1765BF" />
        <stop offset="100%" stop-color="#694872" />
    </linearGradient>

    
</svg>
