<svg width="32" height="32" viewBox="0 0 32 32" xmlns="http://www.w3.org/2000/svg"><title>codepen</title><path d="M31.976 10.886c-.008-.04-.014-.08-.024-.116l-.02-.066c-.012-.034-.024-.068-.04-.1-.006-.024-.02-.046-.028-.068l-.046-.09-.04-.064-.06-.08-.06-.06-.08-.06-.06-.04-.08-.06-.06-.04-.02-.02L16.76.24c-.46-.308-1.06-.308-1.52 0L.444 10.11l-.05.054-.068.074-.048.06-.06.08c-.02.02-.04.04-.04.06l-.06.08-.02.08c-.02.02-.02.06-.04.1l-.02.06c-.02.04-.02.08-.02.12v.06C0 11 0 11.06 0 11.12v9.75c0 .06.004.12.012.18l.014.06c.006.04.012.08.026.116l.02.066c.012.036.02.07.036.1l.03.066c0 .02.02.06.04.08l.04.06c.02.02.04.06.06.08l.04.06.06.06c.02.02.02.04.04.04l.08.06.06.04.02.02 14.62 9.76c.22.16.5.22.76.22s.52-.08.76-.24l14.862-9.874.07-.074.048-.06.06-.08.04-.064.04-.092.02-.072.04-.1.02-.06.04-.1v-10c0-.06 0-.12-.02-.18l-.02-.06.058.004zM16 19.252L11.136 16 16 12.748 20.864 16 16 19.252zm-1.376-8.892l-5.96 3.986-4.812-3.22 10.772-7.18v6.414zM6.19 16l-3.44 2.3v-4.6L6.19 16zm2.474 1.656l5.96 3.986v6.42l-10.772-7.18 4.812-3.22v-.006zm8.71 3.986l5.96-3.98 4.814 3.22-10.774 7.18v-6.42zM25.81 16l3.44-2.3v4.6L25.81 16zm-2.474-1.654l-5.96-3.986V3.94l10.772 7.18-4.812 3.22v.006z" fill-rule="nonzero" fill="#000"/></svg>