<svg width="18" height="18" viewBox="0 0 18 18" xmlns="http://www.w3.org/2000/svg"><title>phone</title><path d="M12 9c0-1.64-1.36-3-3-3V3.984c2.766 0 5.016 2.25 5.016 5.016H12zm3.984 0c0-3.89-3.094-6.984-6.984-6.984V0c4.97 0 9 4.03 9 9h-2.016zm1.032 3.516c.563 0 .984.422.984.984v3.516c0 .563-.422.984-.984.984C7.64 18 0 10.36 0 .984 0 .42.422 0 .984 0H4.5c.563 0 .984.422.984.984 0 1.266.188 2.438.563 3.563.094.328.047.75-.234 1.03L3.61 7.782c1.453 2.86 3.797 5.157 6.61 6.61l2.202-2.203c.28-.28.703-.328 1.03-.234 1.126.375 2.298.563 3.564.563z" fill-rule="nonzero" fill="#000"/></svg>