<svg width="20" height="19" viewBox="0 0 20 19" xmlns="http://www.w3.org/2000/svg"><title>photos</title><path d="M10 15.016c2.766 0 5.016-2.25 5.016-5.016S12.766 4.984 10 4.984 4.984 7.234 4.984 10s2.25 5.016 5.016 5.016zm-3-15h6l1.828 1.97h3.188c1.078 0 1.97.937 1.97 2.015v12c0 1.08-.892 2.017-1.97 2.017H1.986c-1.08 0-1.97-.938-1.97-2.016V4c0-1.077.89-2.015 1.97-2.015h3.187L7 .015zM6.813 10c0-1.78 1.406-3.188 3.188-3.188 1.783 0 3.19 1.406 3.19 3.188 0 1.782-1.407 3.188-3.19 3.188-1.78 0-3.187-1.406-3.187-3.188z" fill-rule="nonzero" fill="#000"/></svg>