<svg width="32" height="27" viewBox="0 0 32 27" xmlns="http://www.w3.org/2000/svg"><title>twitter</title><path d="M32 4.076c-1.18.52-2.44.874-3.77 1.034 1.354-.814 2.396-2.1 2.886-3.632-1.268.74-2.674 1.28-4.17 1.58-1.196-1.28-2.9-2.08-4.792-2.08-3.624 0-6.564 2.94-6.564 6.56 0 .52.06 1.02.17 1.5-5.456-.26-10.294-2.88-13.532-6.84C1.66 3.16 1.34 4.28 1.34 5.5c0 2.28 1.16 4.286 2.92 5.464-1.076-.034-2.09-.33-2.974-.82v.08c0 3.18 2.26 5.836 5.266 6.44-.552.148-1.132.228-1.73.228-.42 0-.82-.04-1.22-.116.84 2.608 3.26 4.506 6.14 4.56-2.24 1.76-5.08 2.808-8.14 2.808-.52 0-1.04-.03-1.56-.09 2.92 1.86 6.36 2.948 10.08 2.948 12.08 0 18.68-10 18.68-18.66 0-.28 0-.56-.02-.84 1.28-.92 2.4-2.08 3.28-3.4L32 4.076z" fill-rule="nonzero" fill="#1DA1F2"/></svg>